<svg xmlns="http://www.w3.org/2000/svg" viewBox="0 0 448 512"><defs><style>.fa-secondary{opacity:.4}</style></defs><path class="fa-secondary" d="M16 48l416 0 0 416L16 464 16 48zm96 192l0 32 32 0 0-32-32 0zm96-96l0 32 32 0 0-32-32 0zm0 96l0 32 32 0 0-32-32 0zm0 96l0 32 32 0 0-32-32 0zm96-96l0 32 32 0 0-32-32 0z"/><path class="fa-primary" d="M16 48l0 416 416 0 0-416L16 48zM0 32l16 0 416 0 16 0 0 16 0 416 0 16-16 0L16 480 0 480l0-16L0 48 0 32zM240 144l0 32-32 0 0-32 32 0zM112 240l32 0 0 32-32 0 0-32zm128 0l0 32-32 0 0-32 32 0zm64 0l32 0 0 32-32 0 0-32zm-64 96l0 32-32 0 0-32 32 0z"/></svg>